<?xml version="1.0" encoding="iso-8859-1"?>
<!-- Generator: Adobe Illustrator 19.0.0, SVG Export Plug-In . SVG Version: 6.00 Build 0)  -->
<svg version="1.1" id="Layer_1" xmlns="http://www.w3.org/2000/svg" xmlns:xlink="http://www.w3.org/1999/xlink" x="0px" y="0px"
	 viewBox="0 0 497.6 497.6" style="enable-background:new 0 0 497.6 497.6;" xml:space="preserve">
<polygon style="fill:#9CDBD7;" points="484.8,448.8 484.8,424.8 476,424.8 476,412.8 457.6,412.8 457.6,429.6 441.6,429.6 
	441.6,441.6 388,441.6 388,429.6 369.6,429.6 369.6,446.4 318.4,446.4 318.4,430.4 312,430.4 312,429.6 296.8,429.6 296.8,424 
	296.8,424 296.8,408 280.8,408 280.8,424 277.6,424 277.6,434.4 264,434.4 264,429.6 254.4,429.6 254.4,432.8 246.4,432.8 
	246.4,433.6 244.8,433.6 244.8,380 212.8,380 212.8,432.8 208,432.8 208,439.2 180.8,439.2 180.8,432.8 172.8,432.8 172.8,424 
	163.2,424 163.2,430.4 159.2,430.4 159.2,448.8 157.6,448.8 157.6,497.6 496.8,497.6 496.8,448.8 "/>
<path style="fill:#CBD8D8;" d="M485.6,15.2c0,4.8-4,8-8,8H19.2c-4.8,0-8-4-8-8V8.8c0-4.8,4-8,8-8h458.4c4.8,0,8,4,8,8V15.2z"/>
<path style="fill:#BAC6C6;" d="M477.6,0c4.8,0,8,4,8,8v7.2c0,4.8-4,8-8,8H19.2c-4.8,0-8-4-8-8"/>
<path style="fill:#869392;" d="M21.6,39.2V256h161.6v-68.8c0-35.2,28.8-64,64-64s64,28.8,64,64V256h161.6V39.2H21.6z"/>
<path style="fill:#BCC1C1;" d="M21.6,32.8v216.8h161.6v-68.8c0-35.2,28.8-64,64-64s64,28.8,64,64v68.8h161.6V32.8H21.6z"/>
<path style="fill:#A2AAAA;" d="M184,249.6v-68.8c0-35.2,28.8-64,64-64s64,28.8,64,64v68.8h161.6V32.8h-452"/>
<g>
	<path style="fill:#869392;" d="M248,116c35.2,0,64,28.8,64,64v68.8h161.6v-216h-452"/>
</g>
<rect x="20.8" y="169.6" style="fill:#A2AAAA;" width="163.2" height="284.8"/>
<polyline style="fill:#BCC1C1;" points="20.8,454.4 20.8,169.6 184,169.6 "/>
<path style="fill:#BAC6C6;" d="M190.4,456.8c0,1.6-1.6,3.2-3.2,3.2H17.6c-1.6,0-3.2-1.6-3.2-3.2l0,0c0-1.6,1.6-3.2,3.2-3.2h168.8
	C188.8,453.6,190.4,455.2,190.4,456.8L190.4,456.8z"/>
<path style="fill:#A0AFAE;" d="M195.2,463.2c0,2.4-1.6,4-4,4H12.8c-2.4,0-4-1.6-4-4l0,0c0-2.4,1.6-4,4-4h178.4
	C193.6,459.2,195.2,460.8,195.2,463.2L195.2,463.2z"/>
<path style="fill:#869392;" d="M172,351.2c0,11.2-9.6,20.8-20.8,20.8H52.8c-11.2,0-20.8-9.6-20.8-20.8V201.6
	c0-11.2,9.6-20.8,20.8-20.8h98.4c11.2,0,20.8,9.6,20.8,20.8V351.2z"/>
<g>
	<path style="fill:#A2AAAA;" d="M151.2,180.8H52.8c-11.2,0-20.8,9.6-20.8,20.8v149.6c0,11.2,9.6,20.8,20.8,20.8H68l102.4-179.2
		C167.2,185.6,160,180.8,151.2,180.8z"/>
	<ellipse style="fill:#A2AAAA;" cx="102.4" cy="278.4" rx="45.6" ry="68"/>
</g>
<path style="fill:#BCC1C1;" d="M102.4,210.4c-25.6,0-45.6,30.4-45.6,68c0,28.8,12,52.8,28.8,63.2l56-97.6
	C133.6,224,119.2,210.4,102.4,210.4z"/>
<g>
	<path style="fill:#869392;" d="M61.6,436c0,2.4-1.6,4-4,4H36c-2.4,0-4-1.6-4-4v-50.4c0-2.4,1.6-4,4-4h22.4c2.4,0,4,1.6,4,4V436
		H61.6z"/>
	<path style="fill:#869392;" d="M172,436c0,2.4-1.6,4-4,4h-22.4c-2.4,0-4-1.6-4-4v-50.4c0-2.4,1.6-4,4-4h23.2c2.4,0,4,1.6,4,4V436
		H172z"/>
</g>
<path style="fill:#A2AAAA;" d="M60.8,384c-0.8-0.8-1.6-1.6-3.2-1.6H36c-2.4,0-4,1.6-4,4v48L60.8,384z"/>
<rect x="5.6" y="465.6" style="fill:#869392;" width="192.8" height="28"/>
<polyline style="fill:#707F7E;" points="5.6,465.6 198.4,465.6 198.4,493.6 "/>
<path style="fill:#869392;" d="M203.2,495.2c0,0.8-0.8,1.6-1.6,1.6H2.4c-0.8,0.8-1.6,0-1.6-1.6l0,0c0-0.8,0.8-1.6,1.6-1.6h199.2
	C202.4,493.6,203.2,494.4,203.2,495.2L203.2,495.2z"/>
<path style="fill:#CBD8D8;" d="M189.6,170.4c0,2.4-1.6,4-4,4H18.4c-2.4,0-4-1.6-4-4l0,0c0-2.4,1.6-4,4-4h167.2
	C188,166.4,189.6,168,189.6,170.4L189.6,170.4z"/>
<rect x="312.8" y="169.6" style="fill:#A2AAAA;" width="163.2" height="284.8"/>
<polyline style="fill:#BCC1C1;" points="476,454.4 476,169.6 312.8,169.6 "/>
<path style="fill:#BAC6C6;" d="M306.4,456.8c0,1.6,1.6,3.2,3.2,3.2h168.8c1.6,0,3.2-1.6,3.2-3.2l0,0c0-1.6-1.6-3.2-3.2-3.2H309.6
	C308,453.6,306.4,455.2,306.4,456.8L306.4,456.8z"/>
<path style="fill:#A0AFAE;" d="M301.6,463.2c0,2.4,1.6,4,4,4H484c2.4,0,4-1.6,4-4l0,0c0-2.4-1.6-4-4-4H304.8
	C303.2,459.2,301.6,460.8,301.6,463.2L301.6,463.2z"/>
<path style="fill:#869392;" d="M324,351.2c0,11.2,9.6,20.8,20.8,20.8h98.4c11.2,0,20.8-9.6,20.8-20.8V201.6
	c0-11.2-9.6-20.8-20.8-20.8h-98.4c-11.2,0-20.8,9.6-20.8,20.8V351.2z"/>
<g>
	<path style="fill:#A2AAAA;" d="M344.8,180.8h98.4c11.2,0,20.8,9.6,20.8,20.8v149.6c0,11.2-9.6,20.8-20.8,20.8H428L326.4,192.8
		C329.6,185.6,336.8,180.8,344.8,180.8z"/>
	<ellipse style="fill:#A2AAAA;" cx="394.4" cy="278.4" rx="45.6" ry="68"/>
</g>
<path style="fill:#BCC1C1;" d="M394.4,210.4c24.8,0,45.6,30.4,45.6,68c0,28.8-12,52.8-28,63.2L356,244
	C363.2,224,377.6,210.4,394.4,210.4z"/>
<g>
	<path style="fill:#869392;" d="M434.4,436c0,2.4,1.6,4,4,4h22.4c2.4,0,4-1.6,4-4v-50.4c0-2.4-1.6-4-4-4h-22.4c-2.4,0-4,1.6-4,4V436
		z"/>
	<path style="fill:#869392;" d="M324,436c0,2.4,1.6,4,4,4h22.4c2.4,0,4-1.6,4-4v-50.4c0-2.4-1.6-4-4-4H328c-2.4,0-4,1.6-4,4V436z"/>
</g>
<path style="fill:#A2AAAA;" d="M435.2,384c0.8-0.8,1.6-1.6,3.2-1.6h22.4c2.4,0,4,1.6,4,4v48L435.2,384z"/>
<rect x="297.6" y="465.6" style="fill:#869392;" width="192.8" height="28"/>
<polyline style="fill:#707F7E;" points="490.4,465.6 297.6,465.6 297.6,493.6 "/>
<path style="fill:#869392;" d="M292.8,495.2c0,0.8,0.8,1.6,1.6,1.6h199.2c0.8,0,1.6-0.8,1.6-1.6l0,0c0-0.8-0.8-1.6-1.6-1.6H295.2
	C293.6,493.6,292.8,494.4,292.8,495.2L292.8,495.2z"/>
<g>
	<path style="fill:#CBD8D8;" d="M306.4,170.4c0,2.4,1.6,4,4,4h167.2c2.4,0,4-1.6,4-4l0,0c0-2.4-1.6-4-4-4H310.4
		C308,166.4,306.4,168,306.4,170.4L306.4,170.4z"/>
	<path style="fill:#CBD8D8;" d="M485.6,94.4c0,4.8-4,8-8,8H19.2c-4.8,0-8-4-8-8v-7.2c0-4.8,4-8,8-8h458.4c4.8,0,8,4,8,8V94.4z"/>
</g>
<path style="fill:#BAC6C6;" d="M477.6,79.2c4.8,0,8,4,8,8v7.2c0,4.8-4,8-8,8H19.2c-4.8,0-8-4-8-8"/>
<path style="fill:#CBD8D8;" d="M485.6,28.8c0,4.8-4,8-8,8H19.2c-4.8,0-8-4-8-8v-7.2c0-4.8,4-8,8-8h458.4c4.8,0,8,4,8,8V28.8z"/>
<path style="fill:#BAC6C6;" d="M477.6,13.6c4.8,0,8,4,8,8v7.2c0,4.8-4,8-8,8H19.2c-4.8,0-8-4-8-8"/>
<g>
</g>
<g>
</g>
<g>
</g>
<g>
</g>
<g>
</g>
<g>
</g>
<g>
</g>
<g>
</g>
<g>
</g>
<g>
</g>
<g>
</g>
<g>
</g>
<g>
</g>
<g>
</g>
<g>
</g>
</svg>
